<mxfile host="app.diagrams.net" modified="2024-06-26T03:58:59.192Z" agent="Mozilla/5.0 (Windows NT 10.0; Win64; x64) AppleWebKit/537.36 (KHTML, like Gecko) Chrome/126.0.0.0 Safari/537.36" etag="VXoW0UtO6IrSBBjRd0an" version="24.6.2" type="github">
  <diagram name="Page-1" id="Yi4qCKwHwHE2i9LplEFX">
    <mxGraphModel dx="1317" dy="657" grid="1" gridSize="10" guides="1" tooltips="1" connect="1" arrows="1" fold="1" page="1" pageScale="1" pageWidth="850" pageHeight="1100" math="0" shadow="0">
      <root>
        <mxCell id="0" />
        <mxCell id="1" parent="0" />
        <mxCell id="dL3wJV5hjYVumxx8Xskh-28" value="&lt;font style=&quot;font-size: 20px;&quot;&gt;Diskon Reguler&lt;/font&gt;" style="text;html=1;strokeColor=none;fillColor=none;align=center;verticalAlign=middle;whiteSpace=wrap;rounded=0;fontFamily=Times New Roman;" parent="1" vertex="1">
          <mxGeometry x="45" width="210" height="50" as="geometry" />
        </mxCell>
        <mxCell id="dL3wJV5hjYVumxx8Xskh-38" value="Check Campaign Tokopedia" style="points=[[0.25,0,0],[0.5,0,0],[0.75,0,0],[1,0.25,0],[1,0.5,0],[1,0.75,0],[0.75,1,0],[0.5,1,0],[0.25,1,0],[0,0.75,0],[0,0.5,0],[0,0.25,0]];shape=mxgraph.bpmn.task;whiteSpace=wrap;rectStyle=rounded;size=10;html=1;container=1;expand=0;collapsible=0;taskMarker=abstract;fontFamily=Times New Roman;" parent="1" vertex="1">
          <mxGeometry x="150" y="160" width="120" height="80" as="geometry" />
        </mxCell>
        <mxCell id="dL3wJV5hjYVumxx8Xskh-41" value="&lt;font&gt;Discount Min Below 20%&amp;nbsp;&lt;/font&gt;" style="points=[[0.25,0.25,0],[0.5,0,0],[0.75,0.25,0],[1,0.5,0],[0.75,0.75,0],[0.5,1,0],[0.25,0.75,0],[0,0.5,0]];shape=mxgraph.bpmn.gateway2;html=1;verticalLabelPosition=bottom;labelBackgroundColor=#ffffff;verticalAlign=top;align=center;perimeter=rhombusPerimeter;outlineConnect=0;outline=none;symbol=none;fontFamily=Times New Roman;" parent="1" vertex="1">
          <mxGeometry x="355" y="255" width="50" height="50" as="geometry" />
        </mxCell>
        <mxCell id="dL3wJV5hjYVumxx8Xskh-45" value="" style="points=[[0.25,0,0],[0.5,0,0],[0.75,0,0],[1,0.25,0],[1,0.5,0],[1,0.75,0],[0.75,1,0],[0.5,1,0],[0.25,1,0],[0,0.75,0],[0,0.5,0],[0,0.25,0]];shape=mxgraph.bpmn.task;whiteSpace=wrap;rectStyle=rounded;size=10;html=1;container=1;expand=0;collapsible=0;taskMarker=abstract;fontFamily=Times New Roman;" parent="1" vertex="1">
          <mxGeometry x="150" y="50" width="120" height="80" as="geometry" />
        </mxCell>
        <mxCell id="dL3wJV5hjYVumxx8Xskh-46" value="&lt;font&gt;Produk sudah didiskon?&lt;/font&gt;" style="points=[[0.25,0.25,0],[0.5,0,0],[0.75,0.25,0],[1,0.5,0],[0.75,0.75,0],[0.5,1,0],[0.25,0.75,0],[0,0.5,0]];shape=mxgraph.bpmn.gateway2;html=1;verticalLabelPosition=bottom;labelBackgroundColor=#ffffff;verticalAlign=top;align=center;perimeter=rhombusPerimeter;outlineConnect=0;outline=none;symbol=none;fontFamily=Times New Roman;" parent="1" vertex="1">
          <mxGeometry x="1190" y="895" width="50" height="50" as="geometry" />
        </mxCell>
        <mxCell id="dL3wJV5hjYVumxx8Xskh-47" value="&lt;font&gt;Confirmation&amp;nbsp;&lt;/font&gt;&lt;div&gt;&lt;font&gt;Discount&lt;/font&gt;&lt;/div&gt;" style="points=[[0.25,0,0],[0.5,0,0],[0.75,0,0],[1,0.25,0],[1,0.5,0],[1,0.75,0],[0.75,1,0],[0.5,1,0],[0.25,1,0],[0,0.75,0],[0,0.5,0],[0,0.25,0]];shape=mxgraph.bpmn.task;whiteSpace=wrap;rectStyle=rounded;size=10;html=1;container=1;expand=0;collapsible=0;taskMarker=abstract;fontFamily=Times New Roman;" parent="1" vertex="1">
          <mxGeometry x="150" y="360" width="120" height="80" as="geometry" />
        </mxCell>
        <mxCell id="dL3wJV5hjYVumxx8Xskh-48" value="Muslim Holyday" style="points=[[0.145,0.145,0],[0.5,0,0],[0.855,0.145,0],[1,0.5,0],[0.855,0.855,0],[0.5,1,0],[0.145,0.855,0],[0,0.5,0]];shape=mxgraph.bpmn.event;html=1;verticalLabelPosition=bottom;labelBackgroundColor=#ffffff;verticalAlign=top;align=center;perimeter=ellipsePerimeter;outlineConnect=0;aspect=fixed;outline=standard;symbol=conditional;fontFamily=Times New Roman;" parent="1" vertex="1">
          <mxGeometry x="45" y="280" width="50" height="50" as="geometry" />
        </mxCell>
        <mxCell id="dL3wJV5hjYVumxx8Xskh-49" value="Monthly Event" style="points=[[0.145,0.145,0],[0.5,0,0],[0.855,0.145,0],[1,0.5,0],[0.855,0.855,0],[0.5,1,0],[0.145,0.855,0],[0,0.5,0]];shape=mxgraph.bpmn.event;html=1;verticalLabelPosition=bottom;labelBackgroundColor=#ffffff;verticalAlign=top;align=center;perimeter=ellipsePerimeter;outlineConnect=0;aspect=fixed;outline=standard;symbol=conditional;fontFamily=Times New Roman;" parent="1" vertex="1">
          <mxGeometry x="40" y="370" width="60" height="60" as="geometry" />
        </mxCell>
        <mxCell id="dL3wJV5hjYVumxx8Xskh-54" value="&lt;font&gt;Setting Campiang on Tokopedia&lt;/font&gt;" style="points=[[0.25,0,0],[0.5,0,0],[0.75,0,0],[1,0.25,0],[1,0.5,0],[1,0.75,0],[0.75,1,0],[0.5,1,0],[0.25,1,0],[0,0.75,0],[0,0.5,0],[0,0.25,0]];shape=mxgraph.bpmn.task;whiteSpace=wrap;rectStyle=rounded;size=10;html=1;container=1;expand=0;collapsible=0;taskMarker=abstract;isLoopSub=1;fontFamily=Times New Roman;" parent="1" vertex="1">
          <mxGeometry x="150" y="520" width="120" height="80" as="geometry" />
        </mxCell>
        <mxCell id="dL3wJV5hjYVumxx8Xskh-56" value="Atur&lt;div&gt;Nama &amp;amp; Tampilan Campaign&lt;/div&gt;" style="points=[[0.25,0,0],[0.5,0,0],[0.75,0,0],[1,0.25,0],[1,0.5,0],[1,0.75,0],[0.75,1,0],[0.5,1,0],[0.25,1,0],[0,0.75,0],[0,0.5,0],[0,0.25,0]];shape=mxgraph.bpmn.task;whiteSpace=wrap;rectStyle=rounded;size=10;html=1;container=1;expand=0;collapsible=0;taskMarker=abstract;fontFamily=Times New Roman;" parent="1" vertex="1">
          <mxGeometry x="330" y="520" width="120" height="80" as="geometry" />
        </mxCell>
        <mxCell id="dL3wJV5hjYVumxx8Xskh-57" value="&lt;div&gt;Tambah Produk List&lt;/div&gt;" style="points=[[0.25,0,0],[0.5,0,0],[0.75,0,0],[1,0.25,0],[1,0.5,0],[1,0.75,0],[0.75,1,0],[0.5,1,0],[0.25,1,0],[0,0.75,0],[0,0.5,0],[0,0.25,0]];shape=mxgraph.bpmn.task;whiteSpace=wrap;rectStyle=rounded;size=10;html=1;container=1;expand=0;collapsible=0;taskMarker=abstract;fontFamily=Times New Roman;" parent="1" vertex="1">
          <mxGeometry x="520" y="520" width="120" height="80" as="geometry" />
        </mxCell>
        <mxCell id="dL3wJV5hjYVumxx8Xskh-58" value="Atur Metode Pembayaran" style="points=[[0.25,0,0],[0.5,0,0],[0.75,0,0],[1,0.25,0],[1,0.5,0],[1,0.75,0],[0.75,1,0],[0.5,1,0],[0.25,1,0],[0,0.75,0],[0,0.5,0],[0,0.25,0]];shape=mxgraph.bpmn.task;whiteSpace=wrap;rectStyle=rounded;size=10;html=1;container=1;expand=0;collapsible=0;taskMarker=abstract;fontFamily=Times New Roman;" parent="1" vertex="1">
          <mxGeometry x="510" y="645" width="120" height="80" as="geometry" />
        </mxCell>
        <mxCell id="dL3wJV5hjYVumxx8Xskh-59" value="Tambah Campaign" style="points=[[0.25,0,0],[0.5,0,0],[0.75,0,0],[1,0.25,0],[1,0.5,0],[1,0.75,0],[0.75,1,0],[0.5,1,0],[0.25,1,0],[0,0.75,0],[0,0.5,0],[0,0.25,0]];shape=mxgraph.bpmn.task;whiteSpace=wrap;rectStyle=rounded;size=10;html=1;container=1;expand=0;collapsible=0;taskMarker=abstract;fontFamily=Times New Roman;" parent="1" vertex="1">
          <mxGeometry x="510" y="780" width="120" height="80" as="geometry" />
        </mxCell>
        <mxCell id="dL3wJV5hjYVumxx8Xskh-61" value="Campaign Tokopedia" style="points=[[0.145,0.145,0],[0.5,0,0],[0.855,0.145,0],[1,0.5,0],[0.855,0.855,0],[0.5,1,0],[0.145,0.855,0],[0,0.5,0]];shape=mxgraph.bpmn.event;html=1;verticalLabelPosition=bottom;labelBackgroundColor=#ffffff;verticalAlign=top;align=center;perimeter=ellipsePerimeter;outlineConnect=0;aspect=fixed;outline=standard;symbol=conditional;fontFamily=Times New Roman;" parent="1" vertex="1">
          <mxGeometry x="355" y="390" width="60" height="60" as="geometry" />
        </mxCell>
        <mxCell id="dL3wJV5hjYVumxx8Xskh-62" value="Slow Move Product" style="points=[[0.145,0.145,0],[0.5,0,0],[0.855,0.145,0],[1,0.5,0],[0.855,0.855,0],[0.5,1,0],[0.145,0.855,0],[0,0.5,0]];shape=mxgraph.bpmn.event;html=1;verticalLabelPosition=bottom;labelBackgroundColor=#ffffff;verticalAlign=top;align=center;perimeter=ellipsePerimeter;outlineConnect=0;aspect=fixed;outline=standard;symbol=message;" parent="1" vertex="1">
          <mxGeometry x="40" y="470" width="60" height="60" as="geometry" />
        </mxCell>
        <mxCell id="dL3wJV5hjYVumxx8Xskh-63" value="" style="swimlane;html=1;startSize=20;fontStyle=0;collapsible=0;horizontal=0;swimlaneLine=1;swimlaneFillColor=#ffffff;strokeWidth=2;whiteSpace=wrap;" parent="1" vertex="1">
          <mxGeometry x="835" y="50" width="780" height="370" as="geometry" />
        </mxCell>
        <mxCell id="dL3wJV5hjYVumxx8Xskh-65" value="Accounting" style="swimlane;startSize=20;horizontal=0;html=1;whiteSpace=wrap;" parent="dL3wJV5hjYVumxx8Xskh-63" vertex="1">
          <mxGeometry x="20" width="760" height="170" as="geometry" />
        </mxCell>
        <mxCell id="dL3wJV5hjYVumxx8Xskh-39" value="Hitung HPP &amp;amp; Diskon&amp;nbsp;" style="points=[[0.25,0,0],[0.5,0,0],[0.75,0,0],[1,0.25,0],[1,0.5,0],[1,0.75,0],[0.75,1,0],[0.5,1,0],[0.25,1,0],[0,0.75,0],[0,0.5,0],[0,0.25,0]];shape=mxgraph.bpmn.task;whiteSpace=wrap;rectStyle=rounded;size=10;html=1;container=1;expand=0;collapsible=0;taskMarker=abstract;fontFamily=Times New Roman;" parent="dL3wJV5hjYVumxx8Xskh-65" vertex="1">
          <mxGeometry x="150" y="35" width="120" height="80" as="geometry" />
        </mxCell>
        <mxCell id="dL3wJV5hjYVumxx8Xskh-66" value="Digital Marketing" style="swimlane;startSize=20;horizontal=0;html=1;whiteSpace=wrap;" parent="dL3wJV5hjYVumxx8Xskh-63" vertex="1">
          <mxGeometry x="20" y="170" width="760" height="200" as="geometry" />
        </mxCell>
        <mxCell id="dL3wJV5hjYVumxx8Xskh-37" value="Mulai" style="points=[[0.145,0.145,0],[0.5,0,0],[0.855,0.145,0],[1,0.5,0],[0.855,0.855,0],[0.5,1,0],[0.145,0.855,0],[0,0.5,0]];shape=mxgraph.bpmn.event;html=1;verticalLabelPosition=bottom;labelBackgroundColor=#ffffff;verticalAlign=top;align=center;perimeter=ellipsePerimeter;outlineConnect=0;aspect=fixed;outline=standard;symbol=general;fontFamily=Times New Roman;" parent="dL3wJV5hjYVumxx8Xskh-66" vertex="1">
          <mxGeometry x="50" y="70" width="60" height="60" as="geometry" />
        </mxCell>
        <mxCell id="dL3wJV5hjYVumxx8Xskh-27" value="Buat Daftar Produk" style="points=[[0.25,0,0],[0.5,0,0],[0.75,0,0],[1,0.25,0],[1,0.5,0],[1,0.75,0],[0.75,1,0],[0.5,1,0],[0.25,1,0],[0,0.75,0],[0,0.5,0],[0,0.25,0]];shape=mxgraph.bpmn.task;whiteSpace=wrap;rectStyle=rounded;size=10;html=1;container=1;expand=0;collapsible=0;taskMarker=abstract;fontFamily=Times New Roman;" parent="dL3wJV5hjYVumxx8Xskh-66" vertex="1">
          <mxGeometry x="150" y="60" width="120" height="80" as="geometry" />
        </mxCell>
        <mxCell id="dL3wJV5hjYVumxx8Xskh-67" style="edgeStyle=orthogonalEdgeStyle;rounded=0;orthogonalLoop=1;jettySize=auto;html=1;entryX=0;entryY=0.5;entryDx=0;entryDy=0;entryPerimeter=0;" parent="dL3wJV5hjYVumxx8Xskh-66" source="dL3wJV5hjYVumxx8Xskh-37" target="dL3wJV5hjYVumxx8Xskh-27" edge="1">
          <mxGeometry relative="1" as="geometry" />
        </mxCell>
        <mxCell id="dL3wJV5hjYVumxx8Xskh-44" value="Atur Diskon di Tokopedia" style="points=[[0.25,0,0],[0.5,0,0],[0.75,0,0],[1,0.25,0],[1,0.5,0],[1,0.75,0],[0.75,1,0],[0.5,1,0],[0.25,1,0],[0,0.75,0],[0,0.5,0],[0,0.25,0]];shape=mxgraph.bpmn.task;whiteSpace=wrap;rectStyle=rounded;size=10;html=1;container=1;expand=0;collapsible=0;taskMarker=abstract;isLoopSub=1;fontFamily=Times New Roman;" parent="dL3wJV5hjYVumxx8Xskh-66" vertex="1">
          <mxGeometry x="340" y="60" width="120" height="80" as="geometry" />
        </mxCell>
        <mxCell id="dL3wJV5hjYVumxx8Xskh-73" value="Akhir" style="points=[[0.145,0.145,0],[0.5,0,0],[0.855,0.145,0],[1,0.5,0],[0.855,0.855,0],[0.5,1,0],[0.145,0.855,0],[0,0.5,0]];shape=mxgraph.bpmn.event;html=1;verticalLabelPosition=bottom;labelBackgroundColor=#ffffff;verticalAlign=top;align=center;perimeter=ellipsePerimeter;outlineConnect=0;aspect=fixed;outline=end;symbol=terminate2;fontFamily=Times New Roman;" parent="dL3wJV5hjYVumxx8Xskh-66" vertex="1">
          <mxGeometry x="680" y="70" width="60" height="60" as="geometry" />
        </mxCell>
        <mxCell id="dL3wJV5hjYVumxx8Xskh-77" value="" style="edgeStyle=orthogonalEdgeStyle;rounded=0;orthogonalLoop=1;jettySize=auto;html=1;" parent="dL3wJV5hjYVumxx8Xskh-66" source="dL3wJV5hjYVumxx8Xskh-75" target="dL3wJV5hjYVumxx8Xskh-73" edge="1">
          <mxGeometry relative="1" as="geometry" />
        </mxCell>
        <mxCell id="dL3wJV5hjYVumxx8Xskh-75" value="Konfirmasi Diskon" style="points=[[0.25,0,0],[0.5,0,0],[0.75,0,0],[1,0.25,0],[1,0.5,0],[1,0.75,0],[0.75,1,0],[0.5,1,0],[0.25,1,0],[0,0.75,0],[0,0.5,0],[0,0.25,0]];shape=mxgraph.bpmn.task;whiteSpace=wrap;rectStyle=rounded;size=10;html=1;container=1;expand=0;collapsible=0;taskMarker=abstract;fontFamily=Times New Roman;" parent="dL3wJV5hjYVumxx8Xskh-66" vertex="1">
          <mxGeometry x="520" y="60" width="120" height="80" as="geometry" />
        </mxCell>
        <mxCell id="dL3wJV5hjYVumxx8Xskh-76" style="edgeStyle=orthogonalEdgeStyle;rounded=0;orthogonalLoop=1;jettySize=auto;html=1;entryX=0;entryY=0.5;entryDx=0;entryDy=0;entryPerimeter=0;" parent="dL3wJV5hjYVumxx8Xskh-66" source="dL3wJV5hjYVumxx8Xskh-44" target="dL3wJV5hjYVumxx8Xskh-75" edge="1">
          <mxGeometry relative="1" as="geometry" />
        </mxCell>
        <mxCell id="dL3wJV5hjYVumxx8Xskh-70" style="edgeStyle=orthogonalEdgeStyle;rounded=0;orthogonalLoop=1;jettySize=auto;html=1;entryX=0.5;entryY=1;entryDx=0;entryDy=0;entryPerimeter=0;" parent="dL3wJV5hjYVumxx8Xskh-63" source="dL3wJV5hjYVumxx8Xskh-27" target="dL3wJV5hjYVumxx8Xskh-39" edge="1">
          <mxGeometry relative="1" as="geometry" />
        </mxCell>
        <mxCell id="dL3wJV5hjYVumxx8Xskh-72" style="edgeStyle=orthogonalEdgeStyle;rounded=0;orthogonalLoop=1;jettySize=auto;html=1;entryX=0.5;entryY=0;entryDx=0;entryDy=0;entryPerimeter=0;" parent="dL3wJV5hjYVumxx8Xskh-63" source="dL3wJV5hjYVumxx8Xskh-39" target="dL3wJV5hjYVumxx8Xskh-44" edge="1">
          <mxGeometry relative="1" as="geometry" />
        </mxCell>
        <mxCell id="dL3wJV5hjYVumxx8Xskh-78" value="Start" style="points=[[0.145,0.145,0],[0.5,0,0],[0.855,0.145,0],[1,0.5,0],[0.855,0.855,0],[0.5,1,0],[0.145,0.855,0],[0,0.5,0]];shape=mxgraph.bpmn.event;html=1;verticalLabelPosition=bottom;labelBackgroundColor=#ffffff;verticalAlign=top;align=center;perimeter=ellipsePerimeter;outlineConnect=0;aspect=fixed;outline=standard;symbol=general;fontFamily=Times New Roman;" parent="1" vertex="1">
          <mxGeometry x="820" y="575" width="70" height="70" as="geometry" />
        </mxCell>
        <mxCell id="dL3wJV5hjYVumxx8Xskh-79" value="Login&amp;nbsp;&lt;div&gt;Tokopedia Seller&lt;/div&gt;" style="points=[[0.25,0,0],[0.5,0,0],[0.75,0,0],[1,0.25,0],[1,0.5,0],[1,0.75,0],[0.75,1,0],[0.5,1,0],[0.25,1,0],[0,0.75,0],[0,0.5,0],[0,0.25,0]];shape=mxgraph.bpmn.task;whiteSpace=wrap;rectStyle=rounded;size=10;html=1;container=1;expand=0;collapsible=0;taskMarker=abstract;fontFamily=Times New Roman;" parent="1" vertex="1">
          <mxGeometry x="970" y="570" width="120" height="80" as="geometry" />
        </mxCell>
        <mxCell id="AmRcjTsEnoSWmWyxUsRI-29" value="" style="edgeStyle=orthogonalEdgeStyle;rounded=0;orthogonalLoop=1;jettySize=auto;html=1;" edge="1" parent="1" source="dL3wJV5hjYVumxx8Xskh-80" target="AmRcjTsEnoSWmWyxUsRI-28">
          <mxGeometry relative="1" as="geometry" />
        </mxCell>
        <mxCell id="dL3wJV5hjYVumxx8Xskh-80" value="Klik Menu &quot;Promosi dan Optimasi&quot;" style="points=[[0.25,0,0],[0.5,0,0],[0.75,0,0],[1,0.25,0],[1,0.5,0],[1,0.75,0],[0.75,1,0],[0.5,1,0],[0.25,1,0],[0,0.75,0],[0,0.5,0],[0,0.25,0]];shape=mxgraph.bpmn.task;whiteSpace=wrap;rectStyle=rounded;size=10;html=1;container=1;expand=0;collapsible=0;taskMarker=abstract;fontFamily=Times New Roman;" parent="1" vertex="1">
          <mxGeometry x="1165" y="570" width="120" height="80" as="geometry" />
        </mxCell>
        <mxCell id="dL3wJV5hjYVumxx8Xskh-81" value="&lt;span style=&quot;font-family: Helvetica;&quot;&gt;Klik&amp;nbsp;&lt;/span&gt;Fitur &quot;Diskon Toko&quot;" style="points=[[0.25,0,0],[0.5,0,0],[0.75,0,0],[1,0.25,0],[1,0.5,0],[1,0.75,0],[0.75,1,0],[0.5,1,0],[0.25,1,0],[0,0.75,0],[0,0.5,0],[0,0.25,0]];shape=mxgraph.bpmn.task;whiteSpace=wrap;rectStyle=rounded;size=10;html=1;container=1;expand=0;collapsible=0;taskMarker=abstract;fontFamily=Times New Roman;" parent="1" vertex="1">
          <mxGeometry x="1305" y="680" width="120" height="80" as="geometry" />
        </mxCell>
        <mxCell id="AmRcjTsEnoSWmWyxUsRI-12" value="" style="edgeStyle=orthogonalEdgeStyle;rounded=0;orthogonalLoop=1;jettySize=auto;html=1;" edge="1" parent="1" source="dL3wJV5hjYVumxx8Xskh-82" target="AmRcjTsEnoSWmWyxUsRI-11">
          <mxGeometry relative="1" as="geometry">
            <Array as="points">
              <mxPoint x="990" y="920" />
            </Array>
          </mxGeometry>
        </mxCell>
        <mxCell id="dL3wJV5hjYVumxx8Xskh-82" value="Ubah Diskon Toko" style="points=[[0.25,0,0],[0.5,0,0],[0.75,0,0],[1,0.25,0],[1,0.5,0],[1,0.75,0],[0.75,1,0],[0.5,1,0],[0.25,1,0],[0,0.75,0],[0,0.5,0],[0,0.25,0]];shape=mxgraph.bpmn.task;whiteSpace=wrap;rectStyle=rounded;size=10;html=1;container=1;expand=0;collapsible=0;taskMarker=abstract;fontFamily=Times New Roman;" parent="1" vertex="1">
          <mxGeometry x="1030" y="880" width="120" height="80" as="geometry" />
        </mxCell>
        <mxCell id="dL3wJV5hjYVumxx8Xskh-84" value="&lt;span style=&quot;font-family: Helvetica;&quot;&gt;Klik&lt;/span&gt;&amp;nbsp;Tombol &quot;Tambah Produk&quot;" style="points=[[0.25,0,0],[0.5,0,0],[0.75,0,0],[1,0.25,0],[1,0.5,0],[1,0.75,0],[0.75,1,0],[0.5,1,0],[0.25,1,0],[0,0.75,0],[0,0.5,0],[0,0.25,0]];shape=mxgraph.bpmn.task;whiteSpace=wrap;rectStyle=rounded;size=10;html=1;container=1;expand=0;collapsible=0;taskMarker=abstract;fontFamily=Times New Roman;" parent="1" vertex="1">
          <mxGeometry x="1470" y="880" width="120" height="80" as="geometry" />
        </mxCell>
        <mxCell id="AmRcjTsEnoSWmWyxUsRI-7" value="" style="edgeStyle=orthogonalEdgeStyle;rounded=0;orthogonalLoop=1;jettySize=auto;html=1;" edge="1" parent="1" source="dL3wJV5hjYVumxx8Xskh-85" target="dL3wJV5hjYVumxx8Xskh-46">
          <mxGeometry relative="1" as="geometry" />
        </mxCell>
        <mxCell id="dL3wJV5hjYVumxx8Xskh-85" value="Cari Produk dengan Name/SKU" style="points=[[0.25,0,0],[0.5,0,0],[0.75,0,0],[1,0.25,0],[1,0.5,0],[1,0.75,0],[0.75,1,0],[0.5,1,0],[0.25,1,0],[0,0.75,0],[0,0.5,0],[0,0.25,0]];shape=mxgraph.bpmn.task;whiteSpace=wrap;rectStyle=rounded;size=10;html=1;container=1;expand=0;collapsible=0;taskMarker=abstract;fontFamily=Times New Roman;" parent="1" vertex="1">
          <mxGeometry x="1280" y="880" width="120" height="80" as="geometry" />
        </mxCell>
        <mxCell id="AmRcjTsEnoSWmWyxUsRI-1" style="edgeStyle=orthogonalEdgeStyle;rounded=0;orthogonalLoop=1;jettySize=auto;html=1;entryX=0;entryY=0.5;entryDx=0;entryDy=0;entryPerimeter=0;" edge="1" parent="1" source="dL3wJV5hjYVumxx8Xskh-78" target="dL3wJV5hjYVumxx8Xskh-79">
          <mxGeometry relative="1" as="geometry" />
        </mxCell>
        <mxCell id="AmRcjTsEnoSWmWyxUsRI-2" style="edgeStyle=orthogonalEdgeStyle;rounded=0;orthogonalLoop=1;jettySize=auto;html=1;entryX=0;entryY=0.5;entryDx=0;entryDy=0;entryPerimeter=0;" edge="1" parent="1" source="dL3wJV5hjYVumxx8Xskh-79" target="dL3wJV5hjYVumxx8Xskh-80">
          <mxGeometry relative="1" as="geometry" />
        </mxCell>
        <mxCell id="AmRcjTsEnoSWmWyxUsRI-5" style="edgeStyle=orthogonalEdgeStyle;rounded=0;orthogonalLoop=1;jettySize=auto;html=1;entryX=0.5;entryY=0;entryDx=0;entryDy=0;entryPerimeter=0;" edge="1" parent="1" source="dL3wJV5hjYVumxx8Xskh-81" target="dL3wJV5hjYVumxx8Xskh-84">
          <mxGeometry relative="1" as="geometry" />
        </mxCell>
        <mxCell id="AmRcjTsEnoSWmWyxUsRI-6" style="edgeStyle=orthogonalEdgeStyle;rounded=0;orthogonalLoop=1;jettySize=auto;html=1;entryX=1;entryY=0.5;entryDx=0;entryDy=0;entryPerimeter=0;" edge="1" parent="1" source="dL3wJV5hjYVumxx8Xskh-84" target="dL3wJV5hjYVumxx8Xskh-85">
          <mxGeometry relative="1" as="geometry" />
        </mxCell>
        <mxCell id="AmRcjTsEnoSWmWyxUsRI-8" value="Tambah Diskon Toko" style="points=[[0.25,0,0],[0.5,0,0],[0.75,0,0],[1,0.25,0],[1,0.5,0],[1,0.75,0],[0.75,1,0],[0.5,1,0],[0.25,1,0],[0,0.75,0],[0,0.5,0],[0,0.25,0]];shape=mxgraph.bpmn.task;whiteSpace=wrap;rectStyle=rounded;size=10;html=1;container=1;expand=0;collapsible=0;taskMarker=abstract;fontFamily=Times New Roman;" vertex="1" parent="1">
          <mxGeometry x="1155" y="1010" width="120" height="80" as="geometry" />
        </mxCell>
        <mxCell id="AmRcjTsEnoSWmWyxUsRI-9" style="edgeStyle=orthogonalEdgeStyle;rounded=0;orthogonalLoop=1;jettySize=auto;html=1;entryX=1;entryY=0.5;entryDx=0;entryDy=0;entryPerimeter=0;" edge="1" parent="1" source="dL3wJV5hjYVumxx8Xskh-46" target="dL3wJV5hjYVumxx8Xskh-82">
          <mxGeometry relative="1" as="geometry" />
        </mxCell>
        <mxCell id="AmRcjTsEnoSWmWyxUsRI-10" style="edgeStyle=orthogonalEdgeStyle;rounded=0;orthogonalLoop=1;jettySize=auto;html=1;entryX=0.5;entryY=0;entryDx=0;entryDy=0;entryPerimeter=0;" edge="1" parent="1" source="dL3wJV5hjYVumxx8Xskh-46" target="AmRcjTsEnoSWmWyxUsRI-8">
          <mxGeometry relative="1" as="geometry" />
        </mxCell>
        <mxCell id="AmRcjTsEnoSWmWyxUsRI-11" value="Ubah Diskon Toko" style="points=[[0.25,0,0],[0.5,0,0],[0.75,0,0],[1,0.25,0],[1,0.5,0],[1,0.75,0],[0.75,1,0],[0.5,1,0],[0.25,1,0],[0,0.75,0],[0,0.5,0],[0,0.25,0]];shape=mxgraph.bpmn.task;whiteSpace=wrap;rectStyle=rounded;size=10;html=1;container=1;expand=0;collapsible=0;taskMarker=abstract;fontFamily=Times New Roman;" vertex="1" parent="1">
          <mxGeometry x="930" y="1010" width="120" height="80" as="geometry" />
        </mxCell>
        <mxCell id="AmRcjTsEnoSWmWyxUsRI-23" value="" style="edgeStyle=orthogonalEdgeStyle;rounded=0;orthogonalLoop=1;jettySize=auto;html=1;" edge="1" parent="1" source="AmRcjTsEnoSWmWyxUsRI-13" target="AmRcjTsEnoSWmWyxUsRI-18">
          <mxGeometry relative="1" as="geometry" />
        </mxCell>
        <mxCell id="AmRcjTsEnoSWmWyxUsRI-13" value="Simpan" style="points=[[0.25,0,0],[0.5,0,0],[0.75,0,0],[1,0.25,0],[1,0.5,0],[1,0.75,0],[0.75,1,0],[0.5,1,0],[0.25,1,0],[0,0.75,0],[0,0.5,0],[0,0.25,0]];shape=mxgraph.bpmn.task;whiteSpace=wrap;rectStyle=rounded;size=10;html=1;container=1;expand=0;collapsible=0;taskMarker=abstract;fontFamily=Times New Roman;" vertex="1" parent="1">
          <mxGeometry x="1030" y="1200" width="120" height="80" as="geometry" />
        </mxCell>
        <mxCell id="AmRcjTsEnoSWmWyxUsRI-18" value="Akhir" style="points=[[0.145,0.145,0],[0.5,0,0],[0.855,0.145,0],[1,0.5,0],[0.855,0.855,0],[0.5,1,0],[0.145,0.855,0],[0,0.5,0]];shape=mxgraph.bpmn.event;html=1;verticalLabelPosition=bottom;labelBackgroundColor=#ffffff;verticalAlign=top;align=center;perimeter=ellipsePerimeter;outlineConnect=0;aspect=fixed;outline=end;symbol=terminate2;" vertex="1" parent="1">
          <mxGeometry x="1065" y="1320" width="50" height="50" as="geometry" />
        </mxCell>
        <mxCell id="AmRcjTsEnoSWmWyxUsRI-19" value="" style="points=[[0.25,0.25,0],[0.5,0,0],[0.75,0.25,0],[1,0.5,0],[0.75,0.75,0],[0.5,1,0],[0.25,0.75,0],[0,0.5,0]];shape=mxgraph.bpmn.gateway2;html=1;verticalLabelPosition=bottom;labelBackgroundColor=#ffffff;verticalAlign=top;align=center;perimeter=rhombusPerimeter;outlineConnect=0;outline=none;symbol=none;" vertex="1" parent="1">
          <mxGeometry x="1065" y="1120" width="50" height="50" as="geometry" />
        </mxCell>
        <mxCell id="AmRcjTsEnoSWmWyxUsRI-20" style="edgeStyle=orthogonalEdgeStyle;rounded=0;orthogonalLoop=1;jettySize=auto;html=1;entryX=0;entryY=0.5;entryDx=0;entryDy=0;entryPerimeter=0;" edge="1" parent="1" source="AmRcjTsEnoSWmWyxUsRI-11" target="AmRcjTsEnoSWmWyxUsRI-19">
          <mxGeometry relative="1" as="geometry">
            <Array as="points">
              <mxPoint x="990" y="1145" />
            </Array>
          </mxGeometry>
        </mxCell>
        <mxCell id="AmRcjTsEnoSWmWyxUsRI-21" style="edgeStyle=orthogonalEdgeStyle;rounded=0;orthogonalLoop=1;jettySize=auto;html=1;exitX=0.5;exitY=1;exitDx=0;exitDy=0;exitPerimeter=0;entryX=1;entryY=0.5;entryDx=0;entryDy=0;entryPerimeter=0;" edge="1" parent="1" source="AmRcjTsEnoSWmWyxUsRI-8" target="AmRcjTsEnoSWmWyxUsRI-19">
          <mxGeometry relative="1" as="geometry" />
        </mxCell>
        <mxCell id="AmRcjTsEnoSWmWyxUsRI-22" style="edgeStyle=orthogonalEdgeStyle;rounded=0;orthogonalLoop=1;jettySize=auto;html=1;exitX=0.5;exitY=1;exitDx=0;exitDy=0;exitPerimeter=0;entryX=0.5;entryY=0;entryDx=0;entryDy=0;entryPerimeter=0;" edge="1" parent="1" source="AmRcjTsEnoSWmWyxUsRI-19" target="AmRcjTsEnoSWmWyxUsRI-13">
          <mxGeometry relative="1" as="geometry" />
        </mxCell>
        <mxCell id="AmRcjTsEnoSWmWyxUsRI-28" value="" style="points=[[0.25,0.25,0],[0.5,0,0],[0.75,0.25,0],[1,0.5,0],[0.75,0.75,0],[0.5,1,0],[0.25,0.75,0],[0,0.5,0]];shape=mxgraph.bpmn.gateway2;html=1;verticalLabelPosition=bottom;labelBackgroundColor=#ffffff;verticalAlign=top;align=center;perimeter=rhombusPerimeter;outlineConnect=0;outline=none;symbol=none;" vertex="1" parent="1">
          <mxGeometry x="1340" y="585" width="50" height="50" as="geometry" />
        </mxCell>
        <mxCell id="AmRcjTsEnoSWmWyxUsRI-30" style="edgeStyle=orthogonalEdgeStyle;rounded=0;orthogonalLoop=1;jettySize=auto;html=1;exitX=0.5;exitY=1;exitDx=0;exitDy=0;exitPerimeter=0;entryX=0.5;entryY=0;entryDx=0;entryDy=0;entryPerimeter=0;" edge="1" parent="1" source="AmRcjTsEnoSWmWyxUsRI-28" target="dL3wJV5hjYVumxx8Xskh-81">
          <mxGeometry relative="1" as="geometry" />
        </mxCell>
        <mxCell id="AmRcjTsEnoSWmWyxUsRI-33" value="Klik Fitur &quot;Promo Tokopedia&quot;" style="points=[[0.25,0,0],[0.5,0,0],[0.75,0,0],[1,0.25,0],[1,0.5,0],[1,0.75,0],[0.75,1,0],[0.5,1,0],[0.25,1,0],[0,0.75,0],[0,0.5,0],[0,0.25,0]];shape=mxgraph.bpmn.task;whiteSpace=wrap;rectStyle=rounded;size=10;html=1;container=1;expand=0;collapsible=0;taskMarker=abstract;" vertex="1" parent="1">
          <mxGeometry x="1305" y="460" width="120" height="80" as="geometry" />
        </mxCell>
        <mxCell id="AmRcjTsEnoSWmWyxUsRI-34" style="edgeStyle=orthogonalEdgeStyle;rounded=0;orthogonalLoop=1;jettySize=auto;html=1;entryX=0.5;entryY=1;entryDx=0;entryDy=0;entryPerimeter=0;" edge="1" parent="1" source="AmRcjTsEnoSWmWyxUsRI-28" target="AmRcjTsEnoSWmWyxUsRI-33">
          <mxGeometry relative="1" as="geometry" />
        </mxCell>
      </root>
    </mxGraphModel>
  </diagram>
</mxfile>
